<svg xmlns="http://www.w3.org/2000/svg" xmlns:xlink="http://www.w3.org/1999/xlink" preserveAspectRatio="xMidYMid" width="28" height="36" viewBox="0 0 28 36">
  <defs>
    <style>
      .cls-1 {
        fill: #dbba68;
        fill-rule: evenodd;
      }
    </style>
  </defs>
  <path d="M14.000,1.443 C7.068,1.443 1.428,7.051 1.428,13.944 C1.428,17.009 3.456,21.993 6.721,26.950 C8.142,29.107 9.678,31.066 11.048,32.465 C12.558,34.007 13.563,34.557 14.000,34.557 C14.438,34.557 15.443,34.007 16.953,32.465 C18.322,31.066 19.858,29.107 21.279,26.950 C24.544,21.992 26.572,17.009 26.572,13.944 C26.572,7.051 20.932,1.443 14.000,1.443 M14.000,36.000 C12.990,36.000 11.692,35.175 10.032,33.479 C8.600,32.016 7.002,29.981 5.532,27.749 C2.068,22.489 -0.000,17.328 -0.000,13.944 C-0.000,6.255 6.281,-0.000 14.000,-0.000 C21.720,-0.000 28.000,6.255 28.000,13.944 C28.000,17.328 25.932,22.489 22.468,27.749 C20.999,29.981 19.400,32.016 17.969,33.479 C16.308,35.175 15.010,36.000 14.000,36.000 M14.000,8.659 C10.994,8.659 8.548,11.089 8.548,14.075 C8.548,17.062 10.994,19.492 14.000,19.492 C15.445,19.492 16.813,18.904 17.851,17.838 C18.884,16.777 19.452,15.390 19.452,13.933 C19.452,10.976 17.057,8.659 14.000,8.659 M14.000,20.934 C10.206,20.934 7.120,17.857 7.120,14.075 C7.120,10.294 10.206,7.217 14.000,7.217 C15.841,7.217 17.564,7.900 18.853,9.142 C20.161,10.402 20.881,12.103 20.881,13.933 C20.881,15.771 20.167,17.517 18.870,18.850 C17.561,20.194 15.831,20.934 14.000,20.934 " class="cls-1"/>
</svg>
