<svg xmlns="http://www.w3.org/2000/svg" xmlns:xlink="http://www.w3.org/1999/xlink" preserveAspectRatio="xMidYMid" width="36" height="26" viewBox="0 0 36 26">
  <defs>
    <style>
      .cls-1 {
        fill: #dbba68;
        fill-rule: evenodd;
      }
    </style>
  </defs>
  <path d="M35.070,15.634 C35.090,15.634 35.106,15.644 35.126,15.645 C35.174,15.635 35.219,15.617 35.271,15.617 C35.672,15.617 36.000,15.936 36.000,16.326 L36.000,21.047 C36.000,23.767 33.723,25.974 30.932,25.995 C30.925,25.995 30.919,25.998 30.912,25.998 L30.894,25.998 L29.070,25.998 L5.106,25.998 C2.297,25.998 -0.000,23.780 -0.000,21.029 L-0.000,4.969 C-0.000,2.236 2.279,-0.000 5.106,-0.000 L30.894,-0.000 C33.702,-0.000 36.000,2.218 36.000,4.969 L36.000,5.909 L36.000,6.974 L36.000,7.276 C36.000,7.666 35.672,7.985 35.271,7.985 C35.219,7.985 35.174,7.967 35.126,7.957 C35.106,7.958 35.090,7.968 35.070,7.968 C32.900,7.968 31.131,9.689 31.131,11.801 C31.131,13.913 32.900,15.634 35.070,15.634 ZM29.672,11.801 C29.672,9.084 31.819,6.864 34.541,6.600 L34.541,5.909 L34.541,4.969 C34.541,3.016 32.900,1.419 30.894,1.419 L5.106,1.419 C3.100,1.419 1.459,3.016 1.459,4.969 L1.459,21.047 C1.459,22.999 3.100,24.596 5.106,24.596 L28.980,24.596 C29.011,24.592 29.038,24.579 29.070,24.579 L30.894,24.579 C32.900,24.579 34.541,22.981 34.541,21.029 L34.541,17.002 C31.819,16.738 29.672,14.518 29.672,11.801 ZM25.988,23.496 C25.623,23.496 25.313,23.194 25.313,22.839 L25.313,21.012 C25.313,20.639 25.623,20.355 25.988,20.355 C26.353,20.355 26.663,20.657 26.663,21.012 L26.663,22.839 C26.663,23.212 26.353,23.496 25.988,23.496 ZM25.988,19.379 C25.623,19.379 25.313,18.651 25.313,18.296 L25.313,16.468 C25.313,16.096 25.623,15.812 25.988,15.812 C26.353,15.812 26.663,16.096 26.663,16.468 L26.663,18.296 C26.663,18.669 26.353,19.379 25.988,19.379 ZM25.988,14.250 C25.623,14.250 25.313,13.948 25.313,13.593 L25.313,11.766 C25.313,11.393 25.623,11.109 25.988,11.109 C26.353,11.109 26.663,11.411 26.663,11.766 L26.663,13.593 C26.663,13.966 26.353,14.250 25.988,14.250 ZM25.988,9.547 C25.623,9.547 25.313,9.246 25.313,8.891 L25.313,7.063 C25.313,6.708 25.623,6.406 25.988,6.406 C26.353,6.406 26.663,6.708 26.663,7.063 L26.663,8.891 C26.663,9.246 26.353,9.547 25.988,9.547 ZM25.988,4.844 C25.623,4.844 25.313,4.543 25.313,4.188 L25.313,2.360 C25.313,2.005 25.623,1.703 25.988,1.703 C26.353,1.703 26.663,2.005 26.663,2.360 L26.663,4.188 C26.663,4.560 26.353,4.844 25.988,4.844 ZM18.346,13.664 C18.675,13.806 18.748,14.055 18.620,14.392 C18.474,14.641 18.237,14.694 17.927,14.552 C16.359,13.824 15.210,13.061 14.498,12.262 L10.632,12.262 C9.957,12.955 9.246,13.487 8.498,13.877 L15.921,13.877 C16.778,13.806 17.143,14.197 17.052,15.013 C17.015,15.226 16.997,15.510 16.997,15.900 C16.924,16.948 16.814,17.640 16.669,17.977 C15.957,19.397 14.462,19.592 12.182,18.545 C11.890,18.367 11.799,18.154 11.909,17.870 C12.127,17.622 12.383,17.533 12.711,17.604 C14.608,18.403 15.574,18.367 15.647,17.498 C15.720,17.249 15.793,16.717 15.866,15.883 C15.903,15.670 15.921,15.528 15.921,15.475 C15.976,15.084 15.775,14.871 15.337,14.871 L11.489,14.818 C11.234,17.143 9.902,18.651 7.477,19.343 C7.222,19.379 7.021,19.201 6.839,18.829 C6.802,18.580 6.930,18.438 7.222,18.367 C9.173,17.746 10.212,16.557 10.322,14.836 L8.498,14.836 C8.079,14.765 7.933,14.534 8.079,14.161 C7.677,14.339 7.240,14.552 6.747,14.782 C6.383,14.924 6.127,14.889 5.945,14.676 C5.799,14.356 5.872,14.126 6.164,13.948 C7.513,13.434 8.535,12.866 9.209,12.280 L6.364,12.280 C6.036,12.245 5.890,12.085 5.890,11.819 C5.890,11.499 6.054,11.357 6.364,11.357 L10.103,11.357 C10.285,11.109 10.504,10.718 10.796,10.168 L7.112,10.168 C6.820,10.168 6.693,9.991 6.693,9.654 C6.693,9.334 6.839,9.192 7.112,9.192 L8.826,9.192 C8.535,8.465 8.279,7.950 8.024,7.631 C7.842,7.311 7.896,7.080 8.188,6.903 C8.516,6.761 8.772,6.832 8.991,7.116 C9.209,7.400 9.465,7.932 9.793,8.731 C9.866,8.944 9.866,9.104 9.793,9.192 L11.179,9.192 C11.434,8.145 11.562,7.418 11.599,7.009 C11.672,6.690 11.890,6.584 12.237,6.637 C12.529,6.743 12.638,6.956 12.620,7.258 C12.547,7.773 12.401,8.411 12.200,9.175 L13.969,9.175 C14.225,8.802 14.535,8.127 14.936,7.205 C15.082,6.850 15.319,6.743 15.629,6.832 C15.921,6.974 15.994,7.222 15.848,7.560 C15.848,7.595 15.830,7.648 15.793,7.719 C15.538,8.411 15.337,8.891 15.155,9.175 L17.672,9.175 C17.963,9.175 18.109,9.334 18.146,9.636 C18.146,9.955 18.000,10.115 17.726,10.151 L11.927,10.151 C11.744,10.541 11.544,10.931 11.343,11.340 L18.182,11.340 C18.474,11.340 18.620,11.499 18.656,11.801 C18.656,12.085 18.511,12.227 18.237,12.262 L15.884,12.262 C16.450,12.777 17.270,13.256 18.346,13.664 Z" class="cls-1"/>
</svg>
