<svg xmlns="http://www.w3.org/2000/svg" xmlns:xlink="http://www.w3.org/1999/xlink" preserveAspectRatio="xMidYMid" width="24" height="24" viewBox="0 0 24 24">
  <defs>
    <style>
      .cls-1 {
        fill: #dbba68;
        fill-rule: evenodd;
      }
    </style>
  </defs>
  <path d="M22.498,4.499 L16.832,4.499 C17.090,4.056 17.248,3.547 17.248,2.998 C17.248,1.341 15.905,-0.002 14.249,-0.002 C13.347,-0.002 12.548,0.403 11.999,1.033 C11.449,0.403 10.650,-0.002 9.749,-0.002 C8.092,-0.002 6.749,1.341 6.749,2.998 C6.749,3.547 6.907,4.056 7.165,4.499 L1.499,4.499 C0.671,4.499 -0.001,5.171 -0.001,5.999 L-0.001,7.499 C-0.001,8.327 0.671,8.999 1.499,8.999 L1.499,21.002 C1.499,22.659 2.842,24.002 4.499,24.002 L19.498,24.002 C21.155,24.002 22.498,22.659 22.498,21.002 L22.498,8.999 C23.326,8.999 23.998,8.327 23.998,7.499 L23.998,5.999 C23.998,5.171 23.326,4.499 22.498,4.499 ZM14.249,1.498 C15.077,1.498 15.748,2.170 15.748,2.998 C15.748,3.827 15.077,4.499 14.249,4.499 C13.420,4.499 12.749,3.827 12.749,2.998 C12.749,2.170 13.420,1.498 14.249,1.498 ZM9.749,1.498 C10.577,1.498 11.249,2.170 11.249,2.998 C11.249,3.827 10.577,4.499 9.749,4.499 C8.921,4.499 8.249,3.827 8.249,2.998 C8.249,2.170 8.921,1.498 9.749,1.498 ZM11.249,22.502 L4.499,22.502 C3.671,22.502 2.999,21.830 2.999,21.002 L2.999,16.501 L11.249,16.501 L11.249,22.502 L11.249,22.502 ZM11.249,15.000 L2.999,15.000 L2.999,8.999 L11.249,8.999 L11.249,15.000 ZM20.998,21.002 C20.998,21.830 20.326,22.502 19.498,22.502 L12.749,22.502 L12.749,16.501 L20.998,16.501 L20.998,21.002 ZM20.998,15.000 L12.749,15.000 L12.749,8.999 L20.998,8.999 L20.998,15.000 ZM21.748,7.499 L2.249,7.499 C1.835,7.499 1.499,7.164 1.499,6.749 C1.499,6.335 1.835,5.999 2.249,5.999 L21.748,5.999 C22.162,5.999 22.498,6.335 22.498,6.749 C22.498,7.164 22.162,7.499 21.748,7.499 Z" class="cls-1"/>
</svg>
