<svg xmlns="http://www.w3.org/2000/svg" xmlns:xlink="http://www.w3.org/1999/xlink" preserveAspectRatio="xMidYMid" width="38" height="31" viewBox="0 0 38 31">
  <defs>
    <style>
      .cls-1 {
        fill: #dbba68;
        fill-rule: evenodd;
      }
    </style>
  </defs>
  <path d="M34.545,8.584 C32.736,8.584 31.255,10.015 31.255,11.764 C31.255,11.923 31.255,12.082 31.255,12.241 C29.939,13.513 28.788,13.354 27.143,13.354 C24.511,13.354 22.372,9.379 21.550,6.995 C22.537,6.200 23.030,5.087 23.030,3.974 C23.030,1.749 21.221,0.000 18.918,0.000 C16.615,0.000 14.805,1.749 14.805,3.974 C14.805,5.246 15.463,6.359 16.450,7.154 C15.957,9.062 14.312,13.513 11.515,13.513 C10.199,13.513 8.554,13.990 6.580,12.400 C6.580,12.241 6.580,12.082 6.580,11.923 C6.580,10.174 5.100,8.743 3.290,8.743 C1.481,8.743 0.000,10.174 0.000,11.923 C0.000,13.354 0.987,14.466 2.303,14.943 L5.264,27.502 L5.429,28.138 C6.087,29.887 7.567,31.000 9.541,31.000 L28.294,31.000 C30.268,31.000 31.749,29.887 32.407,28.138 L32.407,28.138 L35.697,14.944 C37.013,14.467 38.000,13.354 38.000,11.923 C37.835,10.015 36.355,8.585 34.545,8.585 L34.545,8.584 ZM34.545,13.354 L34.381,13.354 L31.255,26.071 L30.926,27.025 C30.597,28.297 29.610,29.251 28.294,29.251 L9.541,29.251 C8.225,29.251 7.238,28.456 6.909,27.025 L6.745,26.389 L3.619,13.354 C3.455,13.354 3.455,13.354 3.290,13.354 C2.303,13.354 1.645,12.559 1.645,11.764 C1.645,10.969 2.468,10.174 3.290,10.174 C4.277,10.174 4.935,10.969 4.935,11.764 C4.935,12.082 4.771,12.400 4.606,12.718 C7.074,15.420 9.706,14.943 11.351,14.943 C15.463,14.943 17.602,9.379 17.931,7.153 L17.931,6.040 C16.944,5.723 16.286,4.769 16.286,3.815 C16.286,2.543 17.437,1.430 18.753,1.430 C20.069,1.430 21.221,2.543 21.221,3.815 C21.221,4.928 20.563,5.723 19.576,6.040 L19.576,6.994 L19.740,6.994 C20.234,8.902 22.701,14.943 26.978,14.943 C29.117,14.943 31.255,14.625 33.065,12.558 C32.900,12.399 32.900,12.081 32.900,11.763 C32.900,10.810 33.723,10.174 34.545,10.174 C35.532,10.174 36.191,10.968 36.191,11.763 C36.191,12.558 35.532,13.353 34.545,13.353 L34.545,13.354 Z" class="cls-1"/>
</svg>
