<svg xmlns="http://www.w3.org/2000/svg" xmlns:xlink="http://www.w3.org/1999/xlink" preserveAspectRatio="xMidYMid" width="28.969" height="30" viewBox="0 0 28.969 30">
  <defs>
    <style>
      .cls-1 {
        fill: #dbba68;
        fill-rule: evenodd;
      }
    </style>
  </defs>
  <path d="M28.018,6.967 L22.244,0.989 C20.968,-0.331 18.900,-0.331 17.625,0.989 L-0.001,19.228 L-0.001,29.999 L10.385,29.999 L11.500,28.845 L10.440,27.747 L9.904,28.309 L1.632,28.309 L1.632,19.892 L18.779,2.185 C19.417,1.524 20.451,1.524 21.089,2.185 L26.863,8.163 C27.501,8.823 27.501,9.894 26.863,10.554 L11.727,26.400 L12.795,27.505 L28.018,11.750 C29.293,10.429 29.293,8.288 28.018,6.967 L28.018,6.967 ZM19.759,5.518 L18.465,6.859 L22.349,10.880 L23.643,9.540 L19.759,5.518 Z" class="cls-1"/>
</svg>
