<svg xmlns="http://www.w3.org/2000/svg" xmlns:xlink="http://www.w3.org/1999/xlink" preserveAspectRatio="xMidYMid" width="10.031" height="16.969" viewBox="0 0 10.031 16.969">
  <defs>
    <style>
      .cls-1 {
        fill: #7b896d;
        fill-rule: evenodd;
      }
    </style>
  </defs>
  <path d="M0.231,0.178 C-0.084,0.455 -0.082,0.902 0.236,1.177 L8.075,8.420 L0.272,15.763 C-0.044,16.041 -0.042,16.488 0.277,16.763 C0.596,17.039 1.110,17.036 1.426,16.759 L9.754,8.954 C9.768,8.942 9.771,8.927 9.784,8.914 C9.787,8.911 9.791,8.911 9.795,8.908 C9.952,8.771 10.030,8.590 10.030,8.410 C10.030,8.229 9.950,8.047 9.790,7.909 L1.380,0.174 C1.061,-0.101 0.547,-0.099 0.231,0.178 L0.231,0.178 L0.231,0.178 Z" class="cls-1"/>
</svg>
