<svg xmlns="http://www.w3.org/2000/svg" xmlns:xlink="http://www.w3.org/1999/xlink" preserveAspectRatio="xMidYMid" width="30" height="36" viewBox="0 0 30 36">
  <defs>
    <style>
      .cls-1 {
        fill: #dbba68;
        fill-rule: evenodd;
      }
    </style>
  </defs>
  <path d="M24.514,25.819 C24.298,26.125 24.374,26.547 24.683,26.761 C24.993,26.975 25.418,26.900 25.634,26.593 C27.251,24.292 28.437,21.757 29.159,19.058 C29.735,16.901 30.018,14.637 29.999,12.328 C29.966,8.392 29.077,5.710 29.039,5.597 C28.946,5.324 28.689,5.138 28.398,5.135 C21.015,5.063 17.248,1.840 15.970,0.455 C15.892,0.370 15.548,0.029 15.001,-0.002 C14.721,-0.018 14.295,0.045 13.853,0.438 C13.836,0.452 13.821,0.467 13.807,0.483 C9.966,4.610 3.854,5.111 1.404,5.135 C1.102,5.138 0.838,5.338 0.755,5.626 C0.740,5.676 0.397,6.880 0.178,8.845 C-0.023,10.649 -0.154,13.471 0.367,16.666 C0.954,20.266 2.231,23.597 4.163,26.566 C6.573,30.271 10.008,33.412 14.375,35.902 C14.463,35.952 14.560,35.983 14.661,35.990 L14.755,35.998 C14.773,35.999 14.791,36.000 14.809,36.000 C14.928,36.000 15.046,35.969 15.149,35.910 C17.259,34.707 19.191,33.340 20.894,31.846 C21.090,31.694 23.535,29.818 25.312,29.579 C25.686,29.528 25.948,29.187 25.897,28.817 C25.846,28.446 25.502,28.186 25.129,28.237 C22.911,28.536 20.147,30.705 20.031,30.797 C20.022,30.805 20.013,30.812 20.004,30.820 C18.447,32.187 16.687,33.445 14.769,34.563 C10.740,32.215 7.566,29.289 5.329,25.862 C3.500,23.058 2.287,19.910 1.724,16.505 C0.939,11.759 1.650,7.809 1.950,6.478 C5.128,6.384 7.997,5.725 10.484,4.516 C12.615,3.480 13.996,2.270 14.785,1.428 C14.906,1.325 14.938,1.347 14.968,1.374 C15.748,2.219 17.127,3.443 19.271,4.493 C21.776,5.720 24.668,6.387 27.877,6.479 C28.119,7.373 28.611,9.525 28.634,12.339 C28.652,14.527 28.384,16.671 27.839,18.711 C27.158,21.256 26.040,23.648 24.514,25.819 ZM6.416,9.561 C6.776,9.449 6.976,9.069 6.864,8.713 C6.751,8.356 6.369,8.157 6.009,8.268 C5.260,8.500 4.241,8.599 4.231,8.600 C3.928,8.629 3.680,8.854 3.625,9.151 C3.603,9.267 3.103,12.029 3.712,15.721 C3.766,16.053 4.056,16.289 4.384,16.289 C4.421,16.289 4.458,16.286 4.495,16.280 C4.867,16.219 5.120,15.871 5.059,15.502 C4.634,12.923 4.791,10.797 4.899,9.882 C5.316,9.822 5.905,9.719 6.416,9.561 Z" class="cls-1"/>
</svg>
