<svg xmlns="http://www.w3.org/2000/svg" xmlns:xlink="http://www.w3.org/1999/xlink" preserveAspectRatio="xMidYMid" width="34" height="34" viewBox="0 0 34 34">
  <defs>
    <style>
      .cls-1 {
        fill: #dbba68;
        fill-rule: evenodd;
      }
    </style>
  </defs>
  <path d="M2.411,22.836 C2.544,23.167 2.383,23.542 2.053,23.675 C1.722,23.807 1.347,23.646 1.214,23.316 C0.818,22.325 0.511,21.290 0.306,20.221 C0.105,19.174 -0.000,18.097 -0.000,17.000 C-0.000,12.306 1.903,8.056 4.980,4.980 C8.056,1.903 12.306,-0.000 17.000,-0.000 C21.694,-0.000 25.944,1.903 29.020,4.980 C32.097,8.056 34.000,12.306 34.000,17.000 C34.000,21.693 32.097,25.943 29.020,29.020 C25.944,32.097 21.694,34.000 17.000,34.000 C15.334,34.000 13.516,33.739 11.799,33.219 C10.208,32.738 8.697,32.030 7.460,31.097 C7.175,30.882 7.119,30.477 7.334,30.193 C7.548,29.908 7.953,29.852 8.238,30.067 C9.345,30.902 10.717,31.541 12.173,31.982 C13.768,32.465 15.454,32.707 17.000,32.707 C21.337,32.707 25.263,30.948 28.106,28.106 C30.948,25.263 32.707,21.337 32.707,17.000 C32.707,12.663 30.948,8.736 28.106,5.894 C25.263,3.051 21.337,1.293 17.000,1.293 C12.663,1.293 8.737,3.051 5.894,5.894 C3.052,8.737 1.293,12.663 1.293,17.000 C1.293,18.022 1.390,19.018 1.574,19.979 C1.764,20.969 2.046,21.925 2.411,22.836 L2.411,22.836 ZM10.805,32.194 L10.806,32.194 C9.762,32.194 8.805,31.949 7.960,31.467 C7.057,30.951 6.353,30.156 5.757,29.242 C5.677,29.099 5.669,29.083 5.589,28.936 C4.689,27.289 5.700,24.682 8.163,22.742 C9.505,21.686 10.989,21.080 12.234,21.080 C13.160,21.080 13.909,21.419 14.363,22.040 C14.460,22.104 14.622,22.187 14.755,22.187 C14.793,22.187 14.872,22.187 14.991,22.052 C14.999,22.044 15.007,22.036 15.014,22.027 C15.708,21.128 16.349,20.160 16.920,19.149 C17.446,18.219 17.911,17.258 18.303,16.290 C18.357,15.984 18.316,15.832 18.281,15.789 C18.256,15.758 18.182,15.738 18.181,15.738 C17.502,15.722 16.896,15.416 16.414,14.855 C15.506,13.799 15.120,11.941 15.381,9.886 C15.782,6.736 17.510,4.360 19.401,4.360 C19.407,4.360 19.448,4.361 19.454,4.361 C19.544,4.363 19.632,4.372 19.718,4.385 C20.878,4.333 21.946,4.575 22.873,5.105 C27.167,7.558 27.258,15.269 23.080,22.659 C19.855,28.362 14.922,32.194 10.805,32.194 L10.805,32.194 ZM12.234,22.645 C11.347,22.645 10.187,23.141 9.131,23.972 C7.291,25.421 6.478,27.326 6.894,28.105 C6.957,28.224 7.002,28.299 7.037,28.359 C7.450,29.075 8.069,29.726 8.736,30.107 C9.342,30.453 10.038,30.628 10.805,30.628 C14.320,30.628 18.807,27.035 21.717,21.889 C25.340,15.480 25.514,8.416 22.096,6.464 C21.411,6.073 20.602,5.900 19.718,5.953 C19.653,5.956 19.588,5.952 19.524,5.940 C19.489,5.933 19.453,5.927 19.416,5.925 C18.486,5.925 17.237,7.704 16.934,10.084 C16.734,11.658 16.995,13.130 17.601,13.835 C17.884,14.165 18.125,14.170 18.204,14.172 C18.272,14.172 19.005,14.195 19.498,14.804 C19.874,15.268 19.984,15.897 19.824,16.671 C19.814,16.717 19.801,16.762 19.783,16.805 C19.360,17.860 18.855,18.908 18.283,19.920 C17.659,21.023 16.957,22.079 16.196,23.058 C16.162,23.102 16.124,23.141 16.083,23.176 C15.713,23.553 15.256,23.752 14.755,23.752 C13.960,23.752 13.343,23.238 13.276,23.179 C13.217,23.128 13.166,23.069 13.125,23.002 C12.940,22.707 12.538,22.645 12.234,22.645 L12.234,22.645 Z" class="cls-1"/>
</svg>
