<svg xmlns="http://www.w3.org/2000/svg" xmlns:xlink="http://www.w3.org/1999/xlink" preserveAspectRatio="xMidYMid" width="36" height="36" viewBox="0 0 36 36">
  <defs>
    <style>
      .cls-1 {
        fill: #d3b263;
        fill-rule: evenodd;
      }
    </style>
  </defs>
  <path d="M35.726,7.187 C35.477,6.858 35.091,6.665 34.683,6.665 L7.146,6.665 L5.990,1.058 C5.863,0.440 5.327,-0.003 4.705,-0.003 L1.312,-0.003 C0.586,-0.003 -0.001,0.594 -0.001,1.331 C-0.001,2.068 0.586,2.665 1.312,2.665 L3.638,2.665 L8.644,26.941 C8.771,27.559 9.307,28.001 9.929,28.001 L29.706,28.001 C30.432,28.001 31.019,27.405 31.019,26.668 C31.019,25.931 30.432,25.335 29.706,25.335 L10.996,25.335 L10.171,21.334 L31.511,21.334 C32.105,21.334 32.626,20.929 32.780,20.345 L35.952,8.344 C36.058,7.944 35.974,7.515 35.726,7.187 L35.726,7.187 ZM30.505,18.667 L9.621,18.667 L7.697,9.332 L32.972,9.332 L30.505,18.667 L30.505,18.667 ZM12.473,29.335 C10.662,29.335 9.190,30.830 9.190,32.669 C9.190,34.508 10.662,36.003 12.473,36.003 C14.283,36.003 15.755,34.508 15.755,32.669 C15.755,30.830 14.283,29.335 12.473,29.335 L12.473,29.335 ZM12.473,34.002 C11.748,34.002 11.160,33.405 11.160,32.669 C11.160,31.933 11.748,31.336 12.473,31.336 C13.197,31.336 13.786,31.933 13.786,32.669 C13.786,33.405 13.197,34.002 12.473,34.002 L12.473,34.002 ZM26.916,29.335 C25.105,29.335 23.633,30.830 23.633,32.669 C23.633,34.508 25.105,36.003 26.916,36.003 C28.726,36.003 30.198,34.508 30.198,32.669 C30.198,30.830 28.726,29.335 26.916,29.335 L26.916,29.335 ZM26.916,34.002 C26.191,34.002 25.603,33.405 25.603,32.669 C25.603,31.933 26.191,31.336 26.916,31.336 C27.640,31.336 28.229,31.933 28.229,32.669 C28.229,33.405 27.640,34.002 26.916,34.002 L26.916,34.002 Z" class="cls-1"/>
</svg>
