<svg xmlns="http://www.w3.org/2000/svg" xmlns:xlink="http://www.w3.org/1999/xlink" preserveAspectRatio="xMidYMid" width="23" height="22" viewBox="0 0 23 22">
  <defs>
    <style>
      .cls-1 {
        fill: #7b896d;
        fill-rule: evenodd;
      }
    </style>
  </defs>
  <path d="M23.000,0.952 C22.232,0.952 21.656,0.996 21.273,1.083 C20.888,1.171 20.598,1.302 20.400,1.477 C20.203,1.652 19.951,1.969 19.644,2.429 L12.964,12.312 L12.964,14.578 L17.604,14.578 L17.604,15.563 L12.964,15.563 L12.964,19.306 C12.964,19.766 13.041,20.094 13.195,20.291 C13.348,20.488 13.688,20.642 14.215,20.751 C14.741,20.861 15.651,20.970 16.946,21.079 L16.946,21.999 L6.646,21.999 L6.646,21.079 C7.875,20.992 8.769,20.894 9.328,20.784 C9.887,20.675 10.260,20.516 10.447,20.308 C10.633,20.100 10.726,19.766 10.726,19.306 L10.726,15.563 L5.462,15.563 L5.462,14.578 L10.727,14.578 C10.727,13.133 10.507,12.105 10.069,11.492 L3.981,3.020 C3.367,2.166 2.769,1.603 2.188,1.329 C1.606,1.056 0.877,0.919 -0.000,0.919 L-0.000,-0.001 L8.621,-0.001 L8.621,0.919 C7.523,0.919 6.745,0.968 6.284,1.066 C5.824,1.165 5.593,1.329 5.593,1.559 C5.593,1.789 5.736,2.101 6.021,2.495 L12.372,11.328 L18.690,1.969 C18.843,1.751 18.920,1.559 18.920,1.395 C18.920,1.231 18.701,1.116 18.262,1.050 C17.823,0.984 17.132,0.952 16.189,0.952 L16.189,-0.001 L23.000,-0.001 L23.000,0.952 L23.000,0.952 Z" class="cls-1"/>
</svg>
