<svg xmlns="http://www.w3.org/2000/svg" xmlns:xlink="http://www.w3.org/1999/xlink" preserveAspectRatio="xMidYMid" width="26" height="29" viewBox="0 0 26 29">
  <defs>
    <style>
      .cls-1 {
        fill: #7b896d;
        fill-rule: evenodd;
      }
    </style>
  </defs>
  <path d="M22.533,1.080 L20.799,1.080 C20.279,1.080 19.759,1.441 19.759,1.801 C19.759,2.341 20.279,2.882 20.799,2.882 L22.533,2.882 C23.573,2.882 24.266,3.602 24.266,4.683 L24.266,25.397 C24.266,26.478 23.573,27.198 22.533,27.198 L3.986,27.198 C2.946,27.198 1.732,26.478 1.732,25.397 L1.732,4.683 C1.732,3.602 2.426,2.882 3.466,2.882 L5.719,2.882 C6.239,2.882 6.413,2.341 6.413,1.801 C6.413,1.260 6.066,1.080 5.719,1.080 L3.466,1.080 C1.039,1.080 -0.001,2.701 -0.001,4.683 L-0.001,25.217 C-0.001,27.379 1.212,29.000 3.639,29.000 L22.360,29.000 C24.786,29.000 25.999,27.739 25.999,25.217 L25.999,4.683 C25.999,2.701 24.786,1.080 22.533,1.080 L22.533,1.080 L22.533,1.080 ZM5.719,9.186 C5.719,9.726 6.066,10.086 6.586,10.086 L19.586,10.086 C20.106,10.086 20.453,9.726 20.453,9.186 C20.453,8.646 20.106,8.285 19.586,8.285 L6.586,8.285 C6.066,8.285 5.719,8.646 5.719,9.186 L5.719,9.186 L5.719,9.186 ZM19.586,13.329 L6.586,13.329 C6.066,13.329 5.719,13.689 5.719,14.229 C5.719,14.590 6.066,15.130 6.586,15.130 L19.586,15.130 C20.106,15.130 20.453,14.770 20.453,14.229 C20.453,13.689 19.933,13.329 19.586,13.329 L19.586,13.329 L19.586,13.329 ZM19.586,18.733 L6.586,18.733 C6.066,18.733 5.719,19.093 5.719,19.633 C5.719,20.173 6.066,20.534 6.586,20.534 L19.586,20.534 C20.106,20.534 20.453,20.173 20.453,19.633 C20.453,19.093 19.933,18.733 19.586,18.733 L19.586,18.733 L19.586,18.733 ZM10.053,3.242 L16.119,3.242 C16.813,3.242 17.333,2.521 17.333,1.621 C17.333,0.720 16.813,-0.001 15.946,-0.001 L10.053,-0.001 C9.359,0.180 8.666,0.900 8.666,1.801 C8.666,2.521 9.359,3.242 10.053,3.242 L10.053,3.242 L10.053,3.242 Z" class="cls-1"/>
</svg>
