<svg xmlns="http://www.w3.org/2000/svg" xmlns:xlink="http://www.w3.org/1999/xlink" preserveAspectRatio="xMidYMid" width="42" height="7" viewBox="0 0 42 7">
  <defs>
    <style>
      .cls-1 {
        fill: #ccc;
        fill-rule: evenodd;
      }
    </style>
  </defs>
  <path d="M-0.000,3.341 C0.004,3.371 0.008,3.400 0.012,3.429 C0.036,3.463 0.026,3.454 0.073,3.467 C0.086,3.450 0.098,3.434 0.110,3.417 C0.106,3.392 0.102,3.366 0.098,3.341 C0.090,3.337 0.082,3.333 0.073,3.329 C0.049,3.333 0.024,3.337 -0.000,3.341 ZM0.955,3.543 C0.952,3.660 0.974,3.695 1.016,3.757 C1.198,3.819 1.430,3.766 1.641,3.782 C2.498,3.786 3.355,3.790 4.212,3.795 C4.887,3.934 4.921,4.932 5.620,5.030 C5.788,5.021 5.955,5.013 6.122,5.004 C6.649,5.004 7.175,5.004 7.702,5.004 C7.984,5.004 8.340,5.068 8.522,4.941 C8.984,4.622 9.060,3.900 9.771,3.782 C15.240,3.790 20.710,3.799 26.179,3.807 C28.489,3.803 30.800,3.799 33.110,3.795 C33.730,3.799 34.351,3.803 34.971,3.807 C35.188,3.807 35.531,3.693 35.706,3.807 C36.016,4.010 35.618,4.404 35.485,4.500 C35.322,4.619 35.253,4.765 35.008,4.815 C34.392,4.815 33.775,4.815 33.159,4.815 C33.007,4.814 32.855,4.760 32.718,4.815 C32.552,4.882 32.453,5.057 32.351,5.193 C32.181,5.421 31.534,6.248 31.310,6.340 C31.157,6.402 30.880,6.363 30.685,6.365 C30.464,6.367 30.257,6.392 30.110,6.302 C29.932,5.689 30.935,5.333 31.004,4.866 C30.991,4.849 30.979,4.832 30.967,4.815 C30.799,4.765 30.656,4.815 30.453,4.815 C29.955,4.815 29.457,4.815 28.959,4.815 C28.730,4.815 28.400,4.752 28.236,4.853 C27.836,5.328 27.436,5.802 27.036,6.277 C26.873,6.394 25.791,6.457 25.689,6.252 C25.472,5.823 26.675,5.162 26.583,4.853 C26.566,4.829 26.582,4.845 26.559,4.828 C26.439,4.746 25.764,4.815 25.530,4.815 C25.205,4.815 23.983,4.755 23.853,4.840 C23.551,5.189 23.249,5.538 22.947,5.886 C22.834,6.033 22.747,6.214 22.579,6.302 C22.377,6.408 21.324,6.449 21.269,6.227 C21.189,5.903 22.016,5.150 22.187,4.954 C22.188,4.874 22.177,4.858 22.151,4.815 C21.972,4.771 21.795,4.831 21.612,4.828 C21.130,4.824 20.649,4.820 20.167,4.815 C19.883,4.815 19.588,4.743 19.408,4.878 C19.302,5.008 19.196,5.139 19.090,5.269 C18.939,5.437 18.788,5.605 18.636,5.773 C18.496,5.959 18.339,6.255 18.110,6.340 C17.865,6.430 17.061,6.392 16.910,6.290 C16.728,5.658 17.729,5.361 17.804,4.866 C17.792,4.849 17.779,4.832 17.767,4.815 C17.601,4.768 17.451,4.815 17.241,4.815 C16.739,4.815 16.236,4.815 15.735,4.815 C15.502,4.815 15.165,4.751 15.012,4.866 C14.690,5.244 14.367,5.622 14.045,6.000 C13.952,6.122 13.889,6.265 13.739,6.327 C13.581,6.392 13.324,6.363 13.114,6.365 C12.859,6.368 12.648,6.388 12.490,6.277 C12.346,5.668 13.319,5.359 13.396,4.866 C13.392,4.857 13.388,4.849 13.384,4.840 C13.185,4.746 12.888,4.815 12.624,4.815 C12.159,4.815 11.694,4.815 11.228,4.815 C11.090,4.807 10.951,4.799 10.812,4.790 C10.251,4.895 9.795,6.224 9.220,6.365 C7.682,6.365 6.143,6.365 4.604,6.365 C4.094,6.361 3.583,6.357 3.073,6.352 C3.028,6.394 2.984,6.437 2.939,6.478 C2.934,6.663 2.915,6.873 3.037,6.957 C3.177,7.055 3.401,6.953 3.588,6.957 C4.061,6.962 4.535,6.966 5.008,6.970 C7.628,6.970 10.249,6.970 12.869,6.970 C17.493,6.966 22.118,6.962 26.743,6.957 C27.216,6.962 27.690,6.966 28.163,6.970 C29.049,6.966 29.934,6.962 30.820,6.957 C31.077,6.962 31.334,6.966 31.592,6.970 C32.260,6.970 32.857,6.966 33.392,6.831 C34.576,6.534 35.371,5.604 36.110,4.828 C36.384,4.540 36.822,3.911 37.224,3.807 C38.412,3.803 39.600,3.799 40.787,3.795 C41.162,3.795 41.638,3.869 41.914,3.770 C41.993,3.626 42.027,3.486 41.975,3.291 C41.743,3.116 41.162,3.202 40.738,3.203 C39.906,3.203 39.073,3.203 38.240,3.203 C37.876,3.203 37.395,3.283 37.114,3.165 C36.817,3.039 36.356,2.400 36.098,2.157 C35.220,1.333 34.544,0.434 33.171,0.103 C32.705,-0.009 32.112,0.027 31.555,0.027 C31.387,0.032 31.220,0.036 31.053,0.040 C29.596,0.040 28.138,0.040 26.681,0.040 C22.241,0.040 17.799,0.040 13.359,0.040 C10.894,0.040 8.495,0.040 6.012,0.040 C5.326,0.036 4.641,0.032 3.955,0.027 C3.806,0.066 3.612,0.209 3.551,0.343 C3.529,0.410 3.538,0.490 3.575,0.531 C3.670,0.708 4.134,0.620 4.384,0.620 C5.196,0.620 6.008,0.620 6.820,0.620 C7.388,0.620 7.955,0.620 8.522,0.620 C8.768,0.620 9.122,0.575 9.306,0.658 C9.781,0.870 10.170,1.781 10.604,2.106 C10.792,2.247 11.045,2.116 11.314,2.157 C11.975,2.161 12.637,2.165 13.298,2.169 C13.318,2.148 13.339,2.127 13.359,2.106 C13.323,1.583 12.339,1.351 12.490,0.695 C12.645,0.590 12.857,0.619 13.102,0.620 C13.310,0.620 13.572,0.592 13.726,0.658 C13.881,0.723 13.961,0.870 14.057,0.998 C14.375,1.371 14.694,1.745 15.012,2.119 C15.284,2.294 16.184,2.119 16.616,2.157 C16.770,2.170 17.690,2.209 17.743,2.169 C17.879,2.067 17.633,1.846 17.583,1.791 C17.449,1.643 16.692,1.018 16.922,0.708 C17.003,0.552 18.034,0.577 18.196,0.695 C18.394,0.840 18.510,1.079 18.673,1.262 C18.824,1.430 18.975,1.598 19.126,1.766 C19.225,1.894 19.315,2.077 19.469,2.144 C19.594,2.198 19.785,2.179 19.922,2.157 C20.326,2.157 20.730,2.157 21.134,2.157 C21.442,2.164 21.969,2.256 22.163,2.119 C22.144,1.621 21.152,1.360 21.294,0.695 C21.535,0.521 22.419,0.574 22.653,0.746 C22.777,0.837 22.852,0.988 22.947,1.111 C23.245,1.451 23.543,1.791 23.840,2.132 C23.945,2.196 25.037,2.192 25.261,2.157 C25.617,2.102 26.395,2.281 26.571,2.106 C26.533,1.673 25.504,1.233 25.689,0.733 C25.782,0.542 26.817,0.580 27.000,0.695 C27.069,0.775 27.138,0.855 27.208,0.935 C27.526,1.317 27.845,1.699 28.163,2.081 C28.348,2.238 28.677,2.154 28.971,2.157 C29.461,2.157 29.951,2.157 30.440,2.157 C30.610,2.158 30.748,2.213 30.918,2.182 C30.938,2.161 30.959,2.140 30.979,2.119 C30.954,1.645 29.773,1.207 30.159,0.645 C30.349,0.586 31.190,0.568 31.371,0.683 C31.618,0.840 32.085,1.451 32.277,1.703 C32.395,1.858 32.515,2.084 32.706,2.157 C32.844,2.210 33.028,2.163 33.171,2.157 C33.763,2.157 34.355,2.157 34.947,2.157 C35.200,2.203 35.300,2.330 35.461,2.459 C35.641,2.604 35.870,2.784 35.791,3.115 C35.538,3.300 34.140,3.203 33.612,3.203 C31.681,3.203 29.750,3.203 27.820,3.203 C21.760,3.203 15.697,3.203 9.637,3.203 C9.095,3.097 8.820,2.062 8.326,1.955 C7.620,1.960 6.914,1.964 6.208,1.968 C5.929,1.968 5.597,1.891 5.412,2.006 C4.999,2.262 4.828,2.850 4.433,3.127 C4.258,3.249 3.860,3.203 3.575,3.203 C3.020,3.203 2.465,3.203 1.910,3.203 C1.678,3.203 1.369,3.143 1.200,3.228 C1.070,3.293 1.024,3.412 0.955,3.543 ZM5.400,3.429 C5.522,3.186 5.663,2.953 5.914,2.850 C6.138,2.758 6.546,2.812 6.832,2.812 C7.174,2.812 7.673,2.730 7.959,2.850 C8.059,2.892 8.115,2.987 8.192,3.051 C8.334,3.170 8.457,3.281 8.473,3.530 C8.488,3.749 8.284,3.852 8.180,3.959 C7.856,4.290 7.597,4.078 7.077,4.160 C6.300,4.283 5.391,4.162 5.400,3.429 Z" class="cls-1"/>
</svg>
