<svg xmlns="http://www.w3.org/2000/svg" xmlns:xlink="http://www.w3.org/1999/xlink" preserveAspectRatio="xMidYMid" width="41.969" height="7" viewBox="0 0 41.969 7">
  <defs>
    <style>
      .cls-1 {
        fill: #c9c9c9;
        fill-rule: evenodd;
      }
    </style>
  </defs>
  <path d="M41.969,3.341 C41.965,3.371 41.961,3.400 41.957,3.429 C41.932,3.463 41.943,3.454 41.895,3.467 C41.883,3.450 41.871,3.434 41.859,3.417 C41.863,3.392 41.867,3.366 41.871,3.341 C41.879,3.337 41.887,3.333 41.895,3.329 C41.920,3.333 41.945,3.337 41.969,3.341 ZM41.014,3.543 C41.017,3.660 40.995,3.695 40.953,3.757 C40.771,3.819 40.539,3.766 40.328,3.782 C39.471,3.786 38.614,3.790 37.757,3.795 C37.082,3.934 37.048,4.932 36.349,5.030 C36.181,5.021 36.014,5.013 35.847,5.004 C35.320,5.004 34.793,5.004 34.267,5.004 C33.985,5.004 33.629,5.068 33.447,4.941 C32.985,4.622 32.909,3.900 32.198,3.782 C26.729,3.790 21.258,3.799 15.790,3.807 C13.480,3.803 11.169,3.799 8.859,3.795 C8.239,3.799 7.618,3.803 6.998,3.807 C6.781,3.807 6.438,3.693 6.263,3.807 C5.953,4.010 6.351,4.404 6.484,4.500 C6.647,4.619 6.715,4.765 6.961,4.815 C7.577,4.815 8.194,4.815 8.810,4.815 C8.962,4.814 9.114,4.760 9.251,4.815 C9.417,4.882 9.516,5.057 9.618,5.193 C9.788,5.421 10.435,6.248 10.659,6.340 C10.812,6.402 11.089,6.363 11.284,6.365 C11.505,6.367 11.712,6.392 11.859,6.302 C12.036,5.689 11.034,5.333 10.965,4.866 C10.977,4.849 10.990,4.832 11.002,4.815 C11.169,4.765 11.313,4.815 11.516,4.815 C12.014,4.815 12.512,4.815 13.010,4.815 C13.239,4.815 13.569,4.752 13.732,4.853 C14.132,5.328 14.533,5.802 14.932,6.277 C15.096,6.394 16.178,6.457 16.279,6.252 C16.497,5.823 15.294,5.162 15.385,4.853 C15.403,4.829 15.387,4.845 15.410,4.828 C15.530,4.746 16.205,4.815 16.438,4.815 C16.764,4.815 17.985,4.755 18.116,4.840 C18.418,5.189 18.720,5.538 19.022,5.886 C19.135,6.033 19.221,6.214 19.390,6.302 C19.592,6.408 20.645,6.449 20.700,6.227 C20.779,5.903 19.952,5.150 19.781,4.954 C19.781,4.874 19.792,4.858 19.818,4.815 C19.997,4.771 20.174,4.831 20.357,4.828 C20.839,4.824 21.320,4.820 21.802,4.815 C22.086,4.815 22.381,4.743 22.561,4.878 C22.667,5.008 22.773,5.139 22.879,5.269 C23.030,5.437 23.181,5.605 23.332,5.773 C23.473,5.959 23.629,6.255 23.859,6.340 C24.104,6.430 24.908,6.392 25.059,6.290 C25.241,5.658 24.240,5.361 24.165,4.866 C24.177,4.849 24.189,4.832 24.202,4.815 C24.368,4.768 24.518,4.815 24.728,4.815 C25.230,4.815 25.732,4.815 26.234,4.815 C26.466,4.815 26.803,4.751 26.957,4.866 C27.279,5.244 27.602,5.622 27.924,6.000 C28.017,6.122 28.080,6.265 28.230,6.327 C28.387,6.392 28.645,6.363 28.855,6.365 C29.110,6.368 29.321,6.388 29.479,6.277 C29.623,5.668 28.650,5.359 28.573,4.866 C28.577,4.857 28.581,4.849 28.585,4.840 C28.783,4.746 29.081,4.815 29.345,4.815 C29.810,4.815 30.275,4.815 30.740,4.815 C30.879,4.807 31.018,4.799 31.157,4.790 C31.718,4.895 32.174,6.224 32.749,6.365 C34.287,6.365 35.826,6.365 37.365,6.365 C37.875,6.361 38.385,6.357 38.895,6.352 C38.940,6.394 38.985,6.437 39.030,6.478 C39.035,6.663 39.054,6.873 38.932,6.957 C38.791,7.055 38.567,6.953 38.381,6.957 C37.908,6.962 37.434,6.966 36.961,6.970 C34.341,6.970 31.720,6.970 29.100,6.970 C24.476,6.966 19.850,6.962 15.226,6.957 C14.753,6.962 14.279,6.966 13.806,6.970 C12.920,6.966 12.034,6.962 11.149,6.957 C10.892,6.962 10.635,6.966 10.377,6.970 C9.709,6.970 9.112,6.966 8.577,6.831 C7.393,6.534 6.598,5.604 5.859,4.828 C5.585,4.540 5.146,3.911 4.745,3.807 C3.557,3.803 2.369,3.799 1.182,3.795 C0.807,3.795 0.331,3.869 0.055,3.770 C-0.024,3.626 -0.058,3.486 -0.006,3.291 C0.225,3.116 0.807,3.202 1.230,3.203 C2.063,3.203 2.896,3.203 3.728,3.203 C4.092,3.203 4.574,3.283 4.855,3.165 C5.152,3.039 5.613,2.400 5.871,2.157 C6.749,1.333 7.425,0.434 8.798,0.103 C9.264,-0.009 9.857,0.027 10.414,0.027 C10.581,0.032 10.749,0.036 10.916,0.040 C12.373,0.040 13.831,0.040 15.288,0.040 C19.728,0.040 24.170,0.040 28.610,0.040 C31.075,0.040 33.474,0.040 35.957,0.040 C36.642,0.036 37.328,0.032 38.014,0.027 C38.163,0.066 38.357,0.209 38.418,0.343 C38.440,0.410 38.431,0.490 38.393,0.531 C38.298,0.708 37.834,0.620 37.585,0.620 C36.773,0.620 35.961,0.620 35.149,0.620 C34.581,0.620 34.014,0.620 33.447,0.620 C33.201,0.620 32.847,0.575 32.663,0.658 C32.187,0.870 31.798,1.781 31.365,2.106 C31.177,2.247 30.924,2.116 30.655,2.157 C29.994,2.161 29.332,2.165 28.671,2.169 C28.651,2.148 28.630,2.127 28.610,2.106 C28.646,1.583 29.630,1.351 29.479,0.695 C29.324,0.590 29.112,0.619 28.867,0.620 C28.659,0.620 28.397,0.592 28.242,0.658 C28.088,0.723 28.008,0.870 27.912,0.998 C27.594,1.371 27.275,1.745 26.957,2.119 C26.685,2.294 25.785,2.119 25.353,2.157 C25.199,2.170 24.279,2.209 24.226,2.169 C24.090,2.067 24.336,1.846 24.385,1.791 C24.520,1.643 25.277,1.018 25.047,0.708 C24.966,0.552 23.935,0.577 23.773,0.695 C23.575,0.840 23.458,1.079 23.296,1.262 C23.145,1.430 22.994,1.598 22.843,1.766 C22.744,1.894 22.654,2.077 22.500,2.144 C22.375,2.198 22.184,2.179 22.047,2.157 C21.643,2.157 21.238,2.157 20.834,2.157 C20.527,2.164 20.000,2.256 19.806,2.119 C19.825,1.621 20.817,1.360 20.675,0.695 C20.434,0.521 19.550,0.574 19.316,0.746 C19.192,0.837 19.117,0.988 19.022,1.111 C18.724,1.451 18.426,1.791 18.128,2.132 C18.024,2.196 16.932,2.192 16.708,2.157 C16.352,2.102 15.573,2.281 15.398,2.106 C15.435,1.673 16.464,1.233 16.279,0.733 C16.187,0.542 15.152,0.580 14.969,0.695 C14.900,0.775 14.830,0.855 14.761,0.935 C14.443,1.317 14.124,1.699 13.806,2.081 C13.621,2.238 13.291,2.154 12.998,2.157 C12.508,2.157 12.018,2.157 11.528,2.157 C11.359,2.158 11.221,2.213 11.051,2.182 C11.030,2.161 11.010,2.140 10.990,2.119 C11.015,1.645 12.196,1.207 11.810,0.645 C11.620,0.586 10.778,0.568 10.598,0.683 C10.351,0.840 9.884,1.451 9.692,1.703 C9.574,1.858 9.454,2.084 9.263,2.157 C9.124,2.210 8.941,2.163 8.798,2.157 C8.206,2.157 7.614,2.157 7.022,2.157 C6.768,2.203 6.669,2.330 6.508,2.459 C6.328,2.604 6.099,2.784 6.177,3.115 C6.431,3.300 7.829,3.203 8.357,3.203 C10.287,3.203 12.218,3.203 14.149,3.203 C20.209,3.203 26.272,3.203 32.332,3.203 C32.874,3.097 33.148,2.062 33.643,1.955 C34.348,1.960 35.055,1.964 35.761,1.968 C36.040,1.968 36.372,1.891 36.557,2.006 C36.970,2.262 37.141,2.850 37.536,3.127 C37.711,3.249 38.109,3.203 38.393,3.203 C38.948,3.203 39.504,3.203 40.059,3.203 C40.291,3.203 40.600,3.143 40.769,3.228 C40.898,3.293 40.945,3.412 41.014,3.543 ZM36.569,3.429 C36.447,3.186 36.306,2.953 36.055,2.850 C35.831,2.758 35.422,2.812 35.136,2.812 C34.795,2.812 34.295,2.730 34.010,2.850 C33.910,2.892 33.854,2.987 33.777,3.051 C33.634,3.170 33.512,3.281 33.496,3.530 C33.481,3.749 33.685,3.852 33.789,3.959 C34.113,4.290 34.372,4.078 34.891,4.160 C35.669,4.283 36.578,4.162 36.569,3.429 Z" class="cls-1"/>
</svg>
